<svg width="942" height="970" viewBox="0 0 942 970" fill="none" xmlns="http://www.w3.org/2000/svg" xmlns:xlink="http://www.w3.org/1999/xlink">
<g filter="url(#filter98_1041)">
<path d="M934,896L927,896L927,896L934,896ZM868,955L74,955L74,969L868,969L868,955ZM15,896L15,0L1,0L1,896L15,896ZM927,732L927,896L941,896L941,732L927,732ZM74,955C41.415,955 15,928.584 15,896L1,896C1,936.316 33.683,969 74,969L74,955ZM868,969C908.316,969 941,936.316 941,896L927,896C927,928.584 900.584,955 868,955L868,969Z" fill="#C59A00"/>
</g>
<path d="M107.565,708C107.953,707.998 108.331,708.123 108.636,708.353C108.941,708.582 109.156,708.904 109.245,709.266L109.245,709.259L108.706,709.391L109.247,709.272L109.247,709.266L110.324,713.309L121.684,711.139C123.027,710.887 124.412,710.922 125.74,711.239C127.068,711.557 128.306,712.15 129.367,712.976C130.428,713.803 131.285,714.843 131.877,716.021C132.469,717.2 132.782,718.489 132.794,719.796L132.794,719.803C132.794,720.544 132.485,721.256 131.936,721.78C131.387,722.304 130.642,722.599 129.866,722.599L119.72,722.599L117.511,725.937L117.509,725.939C117.029,726.652 116.371,727.239 115.592,727.647C114.814,728.054 113.942,728.268 113.054,728.27L110.439,728.27L110.435,728.27C110.137,728.267 109.845,728.192 109.587,728.051C109.329,727.911 109.112,727.709 108.958,727.466C108.805,727.223 108.719,726.946 108.709,726.662C108.699,726.378 108.765,726.096 108.901,725.844L109.395,726.085L108.903,725.842L110.583,722.667L104.932,722.667C104.547,722.667 104.166,722.595 103.811,722.454C103.455,722.314 103.132,722.108 102.86,721.849C102.587,721.589 102.371,721.281 102.224,720.941C102.076,720.602 102,720.238 102,719.871L102,709.664C102,709.222 102.184,708.799 102.51,708.487C102.837,708.175 103.28,708 103.742,708L107.563,708L107.565,708Z" clip-rule="evenodd" fill-rule="evenodd" fill="#315F44"/>
<path d="M535.565,708C535.953,707.998 536.331,708.123 536.636,708.353C536.941,708.582 537.156,708.904 537.245,709.266L537.245,709.259L536.706,709.391L537.247,709.272L537.247,709.266L538.324,713.309L549.684,711.139C551.027,710.887 552.412,710.922 553.74,711.239C555.068,711.557 556.306,712.15 557.367,712.976C558.428,713.803 559.285,714.843 559.877,716.021C560.469,717.2 560.782,718.489 560.794,719.796L560.794,719.803C560.794,720.544 560.485,721.256 559.936,721.78C559.387,722.304 558.642,722.599 557.866,722.599L547.72,722.599L545.511,725.937L545.509,725.939C545.029,726.652 544.371,727.239 543.592,727.647C542.814,728.054 541.942,728.268 541.054,728.27L538.439,728.27L538.435,728.27C538.137,728.267 537.845,728.192 537.587,728.051C537.329,727.911 537.112,727.709 536.958,727.466C536.805,727.223 536.719,726.946 536.709,726.662C536.699,726.378 536.765,726.096 536.901,725.844L537.395,726.085L536.903,725.842L538.583,722.667L532.932,722.667C532.547,722.667 532.166,722.595 531.811,722.454C531.455,722.314 531.132,722.108 530.86,721.849C530.587,721.589 530.371,721.281 530.224,720.941C530.076,720.602 530,720.238 530,719.871L530,709.664C530,709.222 530.184,708.799 530.51,708.487C530.837,708.175 531.28,708 531.742,708L535.563,708L535.565,708Z" clip-rule="evenodd" fill-rule="evenodd" fill="#315F44"/>
<defs>
<filter id="filter98_1041" x="4" y="-4" width="471" height="489" filterUnits="userSpaceOnUse" color-interpolation-filters="sRGB">
<feFlood flood-opacity="0" result="BackgroundImageFix"/>
<feColorMatrix in="SourceAlpha" type="matrix" values="0 0 0 0 0 0 0 0 0 0 0 0 0 0 0 0 0 0 127 0" result="hardAlpha"/>
<feMorphology radius="0" operator="dilate" in="SourceAlpha" result="0dropshadow"/>
<feOffset dx="0" dy="4"/>
<feGaussianBlur stdDeviation="2"/>
<feComposite in2="hardAlpha" operator="out"/>
<feColorMatrix type="matrix" values="0 0 0 0 0 0 0 0 0 0 0 0 0 0 0 0 0 0 0.25 0"/>
<feBlend mode="normal" in2="BackgroundImageFix" result="0dropshadow"/>
<feBlend mode="normal" in="SourceGraphic" in2="0dropshadow" result="shape"/>
</filter>
</defs>
</svg>
