<svg width="64" height="64" viewBox="0 0 64 64" fill="none" xmlns="http://www.w3.org/2000/svg" xmlns:xlink="http://www.w3.org/1999/xlink">
<g filter="url(#filter68_913)">
<path d="M39.809,20.952C39.809,21.508 40.029,22.041 40.422,22.434C40.815,22.827 41.348,23.048 41.904,23.048C42.46,23.048 42.992,22.827 43.385,22.434C43.778,22.041 43.999,21.508 43.999,20.952C43.999,20.397 43.778,19.864 43.385,19.471C42.992,19.078 42.46,18.857 41.904,18.857C41.348,18.857 40.815,19.078 40.422,19.471C40.029,19.864 39.809,20.397 39.809,20.952Z" fill="#D3A603"/>
<path d="M23.047,31.429C23.047,33.651 23.93,35.783 25.502,37.355C27.073,38.927 29.205,39.81 31.428,39.81C33.651,39.81 35.782,38.927 37.354,37.355C38.926,35.783 39.809,33.651 39.809,31.429C39.809,29.206 38.926,27.074 37.354,25.502C35.782,23.931 33.651,23.048 31.428,23.048C29.205,23.048 27.073,23.931 25.502,25.502C23.93,27.074 23.047,29.206 23.047,31.429Z" fill="#D3A603"/>
<path d="M49.238,0L13.619,0C10.007,0 6.543,1.435 3.989,3.989C1.435,6.543 0,10.007 0,13.619L0,49.238C0,52.85 1.435,56.314 3.989,58.868C6.543,61.422 10.007,62.857 13.619,62.857L49.238,62.857C52.85,62.857 56.314,61.422 58.868,58.868C61.422,56.314 62.857,52.85 62.857,49.238L62.857,13.619C62.857,10.007 61.422,6.543 58.868,3.989C56.314,1.435 52.85,0 49.238,0ZM50.286,41.643C50.283,43.934 49.371,46.131 47.751,47.751C46.131,49.371 43.934,50.283 41.643,50.286L21.214,50.286C18.923,50.283 16.726,49.371 15.106,47.751C13.486,46.131 12.574,43.934 12.571,41.643L12.571,21.214C12.574,18.923 13.486,16.726 15.106,15.106C16.726,13.486 18.923,12.574 21.214,12.571L41.643,12.571C43.934,12.574 46.131,13.486 47.751,15.106C49.371,16.726 50.283,18.923 50.286,21.214L50.286,41.643Z" fill="#D3A603"/>
</g>
<defs>
<filter id="filter68_913" x="-2.9" y="-2.9" width="37.228572" height="37.228572" filterUnits="userSpaceOnUse" color-interpolation-filters="sRGB">
<feFlood flood-opacity="0" result="BackgroundImageFix"/>
<feColorMatrix in="SourceAlpha" type="matrix" values="0 0 0 0 0 0 0 0 0 0 0 0 0 0 0 0 0 0 127 0" result="hardAlpha"/>
<feMorphology radius="0" operator="dilate" in="SourceAlpha" result="0dropshadow"/>
<feOffset dx="0" dy="2"/>
<feGaussianBlur stdDeviation="1.45"/>
<feComposite in2="hardAlpha" operator="out"/>
<feColorMatrix type="matrix" values="0 0 0 0 0 0 0 0 0 0 0 0 0 0 0 0 0 0 0.19 0"/>
<feBlend mode="normal" in2="BackgroundImageFix" result="0dropshadow"/>
<feBlend mode="normal" in="SourceGraphic" in2="0dropshadow" result="shape"/>
</filter>
</defs>
</svg>
