<svg width="64" height="64" viewBox="0 0 64 64" fill="none" xmlns="http://www.w3.org/2000/svg" xmlns:xlink="http://www.w3.org/1999/xlink">
<g filter="url(#filter68_910)">
<path d="M26.668,22.4C26.668,23.814 27.23,25.171 28.23,26.171C29.23,27.171 30.587,27.733 32.001,27.733C33.416,27.733 34.772,27.171 35.773,26.171C36.773,25.171 37.335,23.814 37.335,22.4C37.335,20.985 36.773,19.629 35.773,18.629C34.772,17.629 33.416,17.067 32.001,17.067C30.587,17.067 29.23,17.629 28.23,18.629C27.23,19.629 26.668,20.985 26.668,22.4Z" fill="#D3A603"/>
<path d="M50.133,0L13.867,0C10.189,0 6.662,1.461 4.061,4.061C1.461,6.662 0,10.189 0,13.867L0,50.133C0,53.811 1.461,57.338 4.061,59.939C6.662,62.539 10.189,64 13.867,64L50.133,64C53.811,64 57.338,62.539 59.939,59.939C62.539,57.338 64,53.811 64,50.133L64,13.867C64,10.189 62.539,6.662 59.939,4.061C57.338,1.461 53.811,0 50.133,0ZM32,10.667C35.395,10.667 38.651,12.015 41.051,14.416C43.451,16.816 44.8,20.072 44.8,23.467C44.8,29.472 35.563,39.904 32.779,42.901C32.679,43.009 32.559,43.094 32.425,43.153C32.291,43.212 32.146,43.242 32,43.243C31.854,43.242 31.709,43.212 31.575,43.153C31.441,43.094 31.321,43.009 31.221,42.901C28.437,39.893 19.2,29.472 19.2,23.467C19.2,20.072 20.549,16.816 22.949,14.416C25.349,12.015 28.605,10.667 32,10.667ZM48.171,51.2L15.829,51.2C15.474,51.199 15.123,51.114 14.807,50.952C14.491,50.79 14.217,50.555 14.009,50.267C13.801,49.979 13.664,49.645 13.61,49.294C13.555,48.942 13.585,48.583 13.696,48.245L15.307,43.424C15.379,43.201 15.523,43.008 15.715,42.875C15.908,42.742 16.139,42.677 16.373,42.688L25.973,42.688C26.152,42.688 26.327,42.733 26.484,42.819C26.64,42.905 26.773,43.028 26.869,43.179C27.115,43.541 27.349,43.904 27.573,44.245L27.573,44.299C28.068,45.022 28.733,45.613 29.51,46.018C30.287,46.424 31.152,46.631 32.028,46.623C32.904,46.614 33.765,46.39 34.534,45.97C35.303,45.55 35.957,44.946 36.437,44.213L37.152,43.147C37.248,42.996 37.381,42.873 37.537,42.787C37.694,42.701 37.87,42.656 38.048,42.656L47.648,42.656C47.882,42.645 48.113,42.71 48.306,42.843C48.499,42.976 48.642,43.169 48.715,43.392L50.325,48.213C50.401,48.444 50.441,48.685 50.443,48.928C50.447,49.228 50.391,49.525 50.279,49.803C50.166,50.08 49.999,50.332 49.787,50.544C49.575,50.756 49.323,50.923 49.045,51.036C48.768,51.148 48.47,51.204 48.171,51.2Z" fill="#D3A603"/>
</g>
<defs>
<filter id="filter68_910" x="-2.9" y="-2.9" width="37.8" height="37.8" filterUnits="userSpaceOnUse" color-interpolation-filters="sRGB">
<feFlood flood-opacity="0" result="BackgroundImageFix"/>
<feColorMatrix in="SourceAlpha" type="matrix" values="0 0 0 0 0 0 0 0 0 0 0 0 0 0 0 0 0 0 127 0" result="hardAlpha"/>
<feMorphology radius="0" operator="dilate" in="SourceAlpha" result="0dropshadow"/>
<feOffset dx="0" dy="2"/>
<feGaussianBlur stdDeviation="1.45"/>
<feComposite in2="hardAlpha" operator="out"/>
<feColorMatrix type="matrix" values="0 0 0 0 0 0 0 0 0 0 0 0 0 0 0 0 0 0 0.19 0"/>
<feBlend mode="normal" in2="BackgroundImageFix" result="0dropshadow"/>
<feBlend mode="normal" in="SourceGraphic" in2="0dropshadow" result="shape"/>
</filter>
</defs>
</svg>
