<svg width="942" height="824" viewBox="0 0 942 824" fill="none" xmlns="http://www.w3.org/2000/svg" xmlns:xlink="http://www.w3.org/1999/xlink">
<g filter="url(#filter75_219)">
<path d="M868,810L74,810L74,824L868,824L868,810ZM15,751L15,0L1,0L1,751L15,751ZM927,472.844L927,751L941,751L941,472.844L927,472.844ZM74,810C41.415,810 15,783.584 15,751L1,751C1,791.316 33.683,824 74,824L74,810ZM868,824C908.316,824 941,791.316 941,751L927,751C927,783.584 900.584,810 868,810L868,824Z" fill="#C59A00"/>
</g>
<defs>
<filter id="filter75_219" x="4" y="-4.000061" width="471.000031" height="416.500031" filterUnits="userSpaceOnUse" color-interpolation-filters="sRGB">
<feFlood flood-opacity="0" result="BackgroundImageFix"/>
<feColorMatrix in="SourceAlpha" type="matrix" values="0 0 0 0 0 0 0 0 0 0 0 0 0 0 0 0 0 0 127 0" result="hardAlpha"/>
<feMorphology radius="0" operator="dilate" in="SourceAlpha" result="0dropshadow"/>
<feOffset dx="0" dy="4"/>
<feGaussianBlur stdDeviation="2"/>
<feComposite in2="hardAlpha" operator="out"/>
<feColorMatrix type="matrix" values="0 0 0 0 0 0 0 0 0 0 0 0 0 0 0 0 0 0 0.25 0"/>
<feBlend mode="normal" in2="BackgroundImageFix" result="0dropshadow"/>
<feBlend mode="normal" in="SourceGraphic" in2="0dropshadow" result="shape"/>
</filter>
</defs>
</svg>
