<svg width="32" height="20" viewBox="0 0 32 20" fill="none" xmlns="http://www.w3.org/2000/svg" xmlns:xlink="http://www.w3.org/1999/xlink">
<path d="M5.565,-0.537C5.953,-0.539 6.331,-0.414 6.636,-0.185C6.941,0.045 7.156,0.367 7.245,0.729L7.245,0.722L6.706,0.854L7.247,0.735L7.247,0.729L8.324,4.772L19.684,2.602C21.027,2.35 22.412,2.385 23.74,2.702C25.068,3.02 26.306,3.613 27.367,4.439C28.428,5.266 29.285,6.305 29.877,7.484C30.469,8.663 30.782,9.952 30.794,11.259L30.794,11.266C30.794,12.007 30.485,12.718 29.936,13.243C29.387,13.767 28.642,14.062 27.866,14.062L17.72,14.062L15.511,17.4L15.509,17.402C15.029,18.115 14.371,18.702 13.592,19.109C12.814,19.516 11.942,19.731 11.054,19.732L8.439,19.732L8.435,19.732C8.137,19.73 7.845,19.655 7.587,19.514C7.329,19.374 7.112,19.172 6.958,18.929C6.805,18.686 6.719,18.409 6.709,18.125C6.699,17.841 6.765,17.559 6.901,17.307L7.395,17.548L6.903,17.305L8.583,14.13L2.932,14.13C2.547,14.13 2.166,14.058 1.811,13.917C1.455,13.777 1.132,13.571 0.86,13.311C0.587,13.052 0.371,12.743 0.224,12.404C0.076,12.065 0,11.701 0,11.333L0,1.127C0,0.685 0.184,0.262 0.51,-0.05C0.837,-0.362 1.28,-0.537 1.742,-0.537L5.563,-0.537L5.565,-0.537Z" clip-rule="evenodd" fill-rule="evenodd" fill="#315F44"/>
</svg>
