<svg width="32" height="22" viewBox="0 0 32 22" fill="none" xmlns="http://www.w3.org/2000/svg" xmlns:xlink="http://www.w3.org/1999/xlink">
<path d="M5.565,0.932C5.953,0.93 6.331,1.054 6.636,1.284C6.941,1.514 7.156,1.836 7.245,2.197L7.245,2.191L6.706,2.322L7.247,2.204L7.247,2.197L8.324,6.24L19.684,4.071C21.027,3.819 22.412,3.853 23.74,4.171C25.068,4.488 26.306,5.082 27.367,5.908C28.428,6.735 29.285,7.774 29.877,8.953C30.469,10.132 30.782,11.421 30.794,12.728L30.794,12.734C30.794,13.476 30.485,14.187 29.936,14.712C29.387,15.236 28.642,15.531 27.866,15.531L17.72,15.531L15.511,18.869L15.509,18.871C15.029,19.584 14.371,20.171 13.592,20.578C12.814,20.985 11.942,21.2 11.054,21.201L8.439,21.201L8.435,21.201C8.137,21.199 7.845,21.124 7.587,20.983C7.329,20.842 7.112,20.641 6.958,20.398C6.805,20.154 6.719,19.878 6.709,19.594C6.699,19.31 6.765,19.028 6.901,18.776L7.395,19.017L6.903,18.773L8.583,15.598L2.932,15.598C2.547,15.599 2.166,15.527 1.811,15.386C1.455,15.246 1.132,15.04 0.86,14.78C0.587,14.521 0.371,14.212 0.224,13.873C0.076,13.533 0,13.17 0,12.802L0,2.595C0,2.154 0.184,1.731 0.51,1.419C0.837,1.107 1.28,0.932 1.742,0.932L5.563,0.932L5.565,0.932Z" clip-rule="evenodd" fill-rule="evenodd" fill="#315F44"/>
</svg>
