<svg width="32" height="22" viewBox="0 0 32 22" fill="none" xmlns="http://www.w3.org/2000/svg" xmlns:xlink="http://www.w3.org/1999/xlink">
<path d="M5.565,0C5.953,-0.002 6.331,0.123 6.636,0.353C6.941,0.582 7.156,0.904 7.245,1.266L7.245,1.259L6.706,1.391L7.247,1.272L7.247,1.266L8.324,5.309L19.684,3.139C21.027,2.887 22.412,2.922 23.74,3.239C25.068,3.557 26.306,4.15 27.367,4.976C28.428,5.803 29.285,6.843 29.877,8.021C30.469,9.2 30.782,10.489 30.794,11.796L30.794,11.803C30.794,12.544 30.485,13.256 29.936,13.78C29.387,14.304 28.642,14.599 27.866,14.599L17.72,14.599L15.511,17.937L15.509,17.939C15.029,18.652 14.371,19.239 13.592,19.647C12.814,20.054 11.942,20.268 11.054,20.27L8.439,20.27L8.435,20.27C8.137,20.267 7.845,20.192 7.587,20.051C7.329,19.911 7.112,19.709 6.958,19.466C6.805,19.223 6.719,18.946 6.709,18.662C6.699,18.378 6.765,18.096 6.901,17.844L7.395,18.085L6.903,17.842L8.583,14.667L2.932,14.667C2.547,14.667 2.166,14.595 1.811,14.454C1.455,14.314 1.132,14.108 0.86,13.849C0.587,13.589 0.371,13.281 0.224,12.941C0.076,12.602 0,12.238 0,11.87L0,1.664C0,1.222 0.184,0.799 0.51,0.487C0.837,0.175 1.28,0 1.742,0L5.563,0L5.565,0Z" clip-rule="evenodd" fill-rule="evenodd" fill="#315F44"/>
</svg>
