<svg width="32" height="22" viewBox="0 0 32 22" fill="none" xmlns="http://www.w3.org/2000/svg" xmlns:xlink="http://www.w3.org/1999/xlink">
<path d="M5.561,0.932C5.95,0.93 6.327,1.054 6.632,1.284C6.938,1.514 7.152,1.836 7.241,2.197L7.241,2.191L6.702,2.322L7.243,2.204L7.243,2.197L8.32,6.24L19.68,4.071C21.023,3.819 22.408,3.853 23.736,4.171C25.064,4.488 26.302,5.082 27.363,5.908C28.424,6.735 29.281,7.774 29.873,8.953C30.465,10.132 30.778,11.421 30.79,12.728L30.79,12.734C30.79,13.476 30.481,14.187 29.932,14.712C29.383,15.236 28.638,15.531 27.862,15.531L17.717,15.531L15.507,18.869L15.505,18.871C15.026,19.584 14.367,20.171 13.588,20.578C12.81,20.985 11.938,21.2 11.05,21.201L8.435,21.201L8.431,21.201C8.133,21.199 7.842,21.124 7.583,20.983C7.325,20.842 7.108,20.641 6.955,20.398C6.801,20.154 6.715,19.878 6.705,19.594C6.695,19.31 6.761,19.028 6.897,18.776L7.391,19.017L6.899,18.773L8.579,15.598L2.928,15.598C2.543,15.599 2.162,15.527 1.807,15.386C1.451,15.246 1.128,15.04 0.856,14.78C0.584,14.521 0.367,14.212 0.22,13.873C0.072,13.533 -0.004,13.17 -0.004,12.802L-0.004,2.595C-0.004,2.154 0.18,1.731 0.506,1.419C0.833,1.107 1.276,0.932 1.738,0.932L5.559,0.932L5.561,0.932Z" clip-rule="evenodd" fill-rule="evenodd" fill="#315F44"/>
</svg>
