<svg width="64" height="62" viewBox="0 0 64 62" fill="none" xmlns="http://www.w3.org/2000/svg" xmlns:xlink="http://www.w3.org/1999/xlink">
<g filter="url(#filter68_909)">
<path d="M50.133,0L13.867,0C10.189,0 6.662,1.415 4.061,3.935C1.461,6.454 0,9.871 0,13.433L0,48.567C0,52.129 1.461,55.546 4.061,58.065C6.662,60.585 10.189,62 13.867,62L50.133,62C53.811,62 57.338,60.585 59.939,58.065C62.539,55.546 64,52.129 64,48.567L64,13.433C64,9.871 62.539,6.454 59.939,3.935C57.338,1.415 53.811,0 50.133,0ZM48.939,26.092C48.94,26.237 48.909,26.382 48.848,26.515C48.787,26.649 48.698,26.768 48.586,26.866C48.474,26.963 48.342,27.037 48.199,27.082C48.056,27.126 47.904,27.141 47.755,27.125C43.866,26.812 40.249,25.071 37.643,22.258L37.643,38.295C37.678,41.207 36.54,44.017 34.471,46.128C32.401,48.239 29.563,49.485 26.56,49.6C23.592,49.639 20.727,48.544 18.585,46.552C16.444,44.561 15.198,41.832 15.116,38.958C15.035,36.083 16.125,33.293 18.151,31.19C20.177,29.088 22.975,27.843 25.941,27.724C26.122,27.71 26.304,27.71 26.485,27.724C26.755,27.743 27.008,27.86 27.192,28.051C27.376,28.243 27.478,28.496 27.477,28.758L27.477,32.126C27.477,32.4 27.365,32.663 27.165,32.857C26.965,33.051 26.694,33.16 26.411,33.16C24.914,33.194 23.493,33.803 22.46,34.852C21.427,35.901 20.866,37.305 20.901,38.755C20.937,40.205 21.565,41.582 22.648,42.583C23.732,43.584 25.181,44.127 26.677,44.092C28.137,43.975 29.497,43.327 30.484,42.279C31.472,41.23 32.013,39.859 32,38.44L32,13.433C32,13.159 32.112,12.896 32.312,12.703C32.512,12.509 32.784,12.4 33.067,12.4L37.941,12.4C38.185,12.393 38.424,12.467 38.618,12.61C38.812,12.753 38.95,12.956 39.008,13.185L39.147,13.712C39.65,15.682 40.772,17.452 42.358,18.777C43.943,20.102 45.915,20.918 48,21.111C48.258,21.144 48.495,21.267 48.666,21.457C48.837,21.648 48.93,21.892 48.928,22.144L48.939,26.092Z" fill="#D3A603"/>
</g>
<defs>
<filter id="filter68_909" x="-2.9" y="-2.9" width="37.8" height="36.8" filterUnits="userSpaceOnUse" color-interpolation-filters="sRGB">
<feFlood flood-opacity="0" result="BackgroundImageFix"/>
<feColorMatrix in="SourceAlpha" type="matrix" values="0 0 0 0 0 0 0 0 0 0 0 0 0 0 0 0 0 0 127 0" result="hardAlpha"/>
<feMorphology radius="0" operator="dilate" in="SourceAlpha" result="0dropshadow"/>
<feOffset dx="0" dy="2"/>
<feGaussianBlur stdDeviation="1.45"/>
<feComposite in2="hardAlpha" operator="out"/>
<feColorMatrix type="matrix" values="0 0 0 0 0 0 0 0 0 0 0 0 0 0 0 0 0 0 0.19 0"/>
<feBlend mode="normal" in2="BackgroundImageFix" result="0dropshadow"/>
<feBlend mode="normal" in="SourceGraphic" in2="0dropshadow" result="shape"/>
</filter>
</defs>
</svg>
