<svg width="64" height="62" viewBox="0 0 64 62" fill="none" xmlns="http://www.w3.org/2000/svg" xmlns:xlink="http://www.w3.org/1999/xlink">
<g filter="url(#filter68_917)">
<path d="M50.133,0L13.867,0C10.189,0 6.662,1.415 4.061,3.935C1.461,6.454 0,9.871 0,13.433L0,48.567C0,52.129 1.461,55.546 4.061,58.065C6.662,60.585 10.189,62 13.867,62L50.133,62C53.811,62 57.338,60.585 59.939,58.065C62.539,55.546 64,52.129 64,48.567L64,13.433C64,9.871 62.539,6.454 59.939,3.935C57.338,1.415 53.811,0 50.133,0ZM42.208,17.773C42.211,18.138 42.139,18.499 41.996,18.836C41.854,19.174 41.643,19.48 41.377,19.738C41.111,19.995 40.795,20.199 40.447,20.337C40.099,20.476 39.726,20.545 39.349,20.543L37.621,20.543C36.299,20.543 35.627,20.543 35.627,22.744L35.627,25.668C35.627,25.843 35.699,26.012 35.827,26.136C35.955,26.26 36.128,26.329 36.309,26.329L39.232,26.329C39.798,26.329 40.34,26.547 40.74,26.935C41.141,27.322 41.365,27.848 41.365,28.396L41.365,32.405C41.365,32.953 41.141,33.479 40.74,33.867C40.34,34.254 39.798,34.472 39.232,34.472L36.267,34.472C36.086,34.472 35.912,34.542 35.784,34.666C35.656,34.79 35.584,34.958 35.584,35.133L35.584,47.533C35.584,48.081 35.359,48.607 34.959,48.995C34.559,49.382 34.016,49.6 33.451,49.6L28.331,49.6C27.765,49.6 27.222,49.382 26.822,48.995C26.422,48.607 26.197,48.081 26.197,47.533L26.197,35.133C26.197,34.958 26.125,34.79 25.997,34.666C25.869,34.542 25.696,34.472 25.515,34.472L22.859,34.472C22.293,34.472 21.75,34.254 21.35,33.867C20.95,33.479 20.725,32.953 20.725,32.405L20.725,28.396C20.725,27.848 20.95,27.322 21.35,26.935C21.75,26.547 22.293,26.329 22.859,26.329L25.536,26.329C25.717,26.329 25.891,26.26 26.019,26.136C26.147,26.012 26.219,25.843 26.219,25.668L26.219,21.938C26.219,16.141 29.803,12.4 35.339,12.4L37.472,12.4L39.456,12.4C40.203,12.411 40.915,12.707 41.439,13.223C41.962,13.74 42.254,14.435 42.251,15.159L42.208,17.773Z" fill="#D3A603"/>
</g>
<defs>
<filter id="filter68_917" x="-2.9" y="-2.9" width="37.8" height="36.8" filterUnits="userSpaceOnUse" color-interpolation-filters="sRGB">
<feFlood flood-opacity="0" result="BackgroundImageFix"/>
<feColorMatrix in="SourceAlpha" type="matrix" values="0 0 0 0 0 0 0 0 0 0 0 0 0 0 0 0 0 0 127 0" result="hardAlpha"/>
<feMorphology radius="0" operator="dilate" in="SourceAlpha" result="0dropshadow"/>
<feOffset dx="0" dy="2"/>
<feGaussianBlur stdDeviation="1.45"/>
<feComposite in2="hardAlpha" operator="out"/>
<feColorMatrix type="matrix" values="0 0 0 0 0 0 0 0 0 0 0 0 0 0 0 0 0 0 0.19 0"/>
<feBlend mode="normal" in2="BackgroundImageFix" result="0dropshadow"/>
<feBlend mode="normal" in="SourceGraphic" in2="0dropshadow" result="shape"/>
</filter>
</defs>
</svg>
