<svg width="64" height="62" viewBox="0 0 64 62" fill="none" xmlns="http://www.w3.org/2000/svg" xmlns:xlink="http://www.w3.org/1999/xlink">
<g filter="url(#filter68_918)">
<path d="M50.133,0L13.867,0C10.189,0 6.662,1.415 4.061,3.935C1.461,6.454 0,9.871 0,13.433L0,48.567C0,52.129 1.461,55.546 4.061,58.065C6.662,60.585 10.189,62 13.867,62L50.133,62C53.811,62 57.338,60.585 59.939,58.065C62.539,55.546 64,52.129 64,48.567L64,13.433C64,9.871 62.539,6.454 59.939,3.935C57.338,1.415 53.811,0 50.133,0ZM32,12.4C33.899,12.4 35.755,12.945 37.333,13.967C38.912,14.989 40.143,16.442 40.869,18.141C41.596,19.84 41.786,21.71 41.416,23.514C41.045,25.318 40.131,26.975 38.788,28.276C37.446,29.577 35.735,30.462 33.873,30.821C32.011,31.18 30.08,30.996 28.326,30.292C26.572,29.588 25.073,28.396 24.018,26.867C22.963,25.337 22.4,23.539 22.4,21.7C22.4,19.233 23.411,16.868 25.212,15.124C27.012,13.38 29.454,12.4 32,12.4ZM49.067,49.042C48.945,49.208 48.786,49.345 48.601,49.442C48.416,49.539 48.21,49.593 48,49.6L16.075,49.6C15.856,49.601 15.639,49.55 15.445,49.453C15.25,49.356 15.082,49.215 14.955,49.041C14.829,48.868 14.747,48.668 14.717,48.457C14.688,48.247 14.71,48.033 14.784,47.833C16.043,44.385 18.375,41.399 21.458,39.287C24.541,37.176 28.224,36.042 32,36.042C35.776,36.042 39.459,37.176 42.542,39.287C45.625,41.399 47.957,44.385 49.216,47.833C49.293,48.031 49.319,48.245 49.293,48.455C49.267,48.666 49.19,48.867 49.067,49.042Z" fill="#D3A603"/>
</g>
<defs>
<filter id="filter68_918" x="-2.9" y="-2.9" width="37.8" height="36.8" filterUnits="userSpaceOnUse" color-interpolation-filters="sRGB">
<feFlood flood-opacity="0" result="BackgroundImageFix"/>
<feColorMatrix in="SourceAlpha" type="matrix" values="0 0 0 0 0 0 0 0 0 0 0 0 0 0 0 0 0 0 127 0" result="hardAlpha"/>
<feMorphology radius="0" operator="dilate" in="SourceAlpha" result="0dropshadow"/>
<feOffset dx="0" dy="2"/>
<feGaussianBlur stdDeviation="1.45"/>
<feComposite in2="hardAlpha" operator="out"/>
<feColorMatrix type="matrix" values="0 0 0 0 0 0 0 0 0 0 0 0 0 0 0 0 0 0 0.19 0"/>
<feBlend mode="normal" in2="BackgroundImageFix" result="0dropshadow"/>
<feBlend mode="normal" in="SourceGraphic" in2="0dropshadow" result="shape"/>
</filter>
</defs>
</svg>
